<svg id="visual" viewBox="0 0 960 540" width="960" height="540" xmlns="http://www.w3.org/2000/svg" xmlns:xlink="http://www.w3.org/1999/xlink" version="1.1"><path d="M0 327L14.5 337.2C29 347.3 58 367.7 87.2 370C116.3 372.3 145.7 356.7 174.8 347.7C204 338.7 233 336.3 262 341.2C291 346 320 358 349 359.2C378 360.3 407 350.7 436.2 348.7C465.3 346.7 494.7 352.3 523.8 352.2C553 352 582 346 611 349.8C640 353.7 669 367.3 698 372.7C727 378 756 375 785.2 368.7C814.3 362.3 843.7 352.7 872.8 347.2C902 341.7 931 340.3 945.5 339.7L960 339L960 541L945.5 541C931 541 902 541 872.8 541C843.7 541 814.3 541 785.2 541C756 541 727 541 698 541C669 541 640 541 611 541C582 541 553 541 523.8 541C494.7 541 465.3 541 436.2 541C407 541 378 541 349 541C320 541 291 541 262 541C233 541 204 541 174.8 541C145.7 541 116.3 541 87.2 541C58 541 29 541 14.5 541L0 541Z" fill="#434343"></path><path d="M0 403L14.5 405.2C29 407.3 58 411.7 87.2 414.8C116.3 418 145.7 420 174.8 420.7C204 421.3 233 420.7 262 414.3C291 408 320 396 349 392.2C378 388.3 407 392.7 436.2 393.8C465.3 395 494.7 393 523.8 388.5C553 384 582 377 611 378.8C640 380.7 669 391.3 698 396.7C727 402 756 402 785.2 405.2C814.3 408.3 843.7 414.7 872.8 416.5C902 418.3 931 415.7 945.5 414.3L960 413L960 541L945.5 541C931 541 902 541 872.8 541C843.7 541 814.3 541 785.2 541C756 541 727 541 698 541C669 541 640 541 611 541C582 541 553 541 523.8 541C494.7 541 465.3 541 436.2 541C407 541 378 541 349 541C320 541 291 541 262 541C233 541 204 541 174.8 541C145.7 541 116.3 541 87.2 541C58 541 29 541 14.5 541L0 541Z" fill="#2b2b2b"></path><path d="M0 464L14.5 461.8C29 459.7 58 455.3 87.2 450.2C116.3 445 145.7 439 174.8 441.7C204 444.3 233 455.7 262 459.7C291 463.7 320 460.3 349 456.2C378 452 407 447 436.2 447.2C465.3 447.3 494.7 452.7 523.8 448.8C553 445 582 432 611 431.8C640 431.7 669 444.3 698 452.3C727 460.3 756 463.7 785.2 459C814.3 454.3 843.7 441.7 872.8 439.3C902 437 931 445 945.5 449L960 453L960 541L945.5 541C931 541 902 541 872.8 541C843.7 541 814.3 541 785.2 541C756 541 727 541 698 541C669 541 640 541 611 541C582 541 553 541 523.8 541C494.7 541 465.3 541 436.2 541C407 541 378 541 349 541C320 541 291 541 262 541C233 541 204 541 174.8 541C145.7 541 116.3 541 87.2 541C58 541 29 541 14.5 541L0 541Z" fill="#1e1e1e"></path><path d="M0 489L14.5 488.2C29 487.3 58 485.7 87.2 484.2C116.3 482.7 145.7 481.3 174.8 482.5C204 483.7 233 487.3 262 488.5C291 489.7 320 488.3 349 485.3C378 482.3 407 477.7 436.2 478.2C465.3 478.7 494.7 484.3 523.8 485.2C553 486 582 482 611 483C640 484 669 490 698 489C727 488 756 480 785.2 479.2C814.3 478.3 843.7 484.7 872.8 488.5C902 492.3 931 493.7 945.5 494.3L960 495L960 541L945.5 541C931 541 902 541 872.8 541C843.7 541 814.3 541 785.2 541C756 541 727 541 698 541C669 541 640 541 611 541C582 541 553 541 523.8 541C494.7 541 465.3 541 436.2 541C407 541 378 541 349 541C320 541 291 541 262 541C233 541 204 541 174.8 541C145.7 541 116.3 541 87.2 541C58 541 29 541 14.5 541L0 541Z" fill="#191919"></path></svg>