<svg id="visual" viewBox="0 0 960 540" width="960" height="540" xmlns="http://www.w3.org/2000/svg" xmlns:xlink="http://www.w3.org/1999/xlink" version="1.1"><rect x="0" y="0" width="960" height="540" fill="#202020"></rect><path d="M0 389L17.8 396.2C35.7 403.3 71.3 417.7 106.8 427.8C142.3 438 177.7 444 213.2 442.3C248.7 440.7 284.3 431.3 320 429.5C355.7 427.7 391.3 433.3 426.8 421.8C462.3 410.3 497.7 381.7 533.2 381.3C568.7 381 604.3 409 640 412.3C675.7 415.7 711.3 394.3 746.8 379.8C782.3 365.3 817.7 357.7 853.2 355C888.7 352.3 924.3 354.7 942.2 355.8L960 357L960 0L942.2 0C924.3 0 888.7 0 853.2 0C817.7 0 782.3 0 746.8 0C711.3 0 675.7 0 640 0C604.3 0 568.7 0 533.2 0C497.7 0 462.3 0 426.8 0C391.3 0 355.7 0 320 0C284.3 0 248.7 0 213.2 0C177.7 0 142.3 0 106.8 0C71.3 0 35.7 0 17.8 0L0 0Z" fill="#c62368"></path><path d="M0 284L17.8 285.5C35.7 287 71.3 290 106.8 304.2C142.3 318.3 177.7 343.7 213.2 349.5C248.7 355.3 284.3 341.7 320 330.7C355.7 319.7 391.3 311.3 426.8 312.7C462.3 314 497.7 325 533.2 339C568.7 353 604.3 370 640 375.7C675.7 381.3 711.3 375.7 746.8 357.2C782.3 338.7 817.7 307.3 853.2 302C888.7 296.7 924.3 317.3 942.2 327.7L960 338L960 0L942.2 0C924.3 0 888.7 0 853.2 0C817.7 0 782.3 0 746.8 0C711.3 0 675.7 0 640 0C604.3 0 568.7 0 533.2 0C497.7 0 462.3 0 426.8 0C391.3 0 355.7 0 320 0C284.3 0 248.7 0 213.2 0C177.7 0 142.3 0 106.8 0C71.3 0 35.7 0 17.8 0L0 0Z" fill="#d23467"></path><path d="M0 228L17.8 229.8C35.7 231.7 71.3 235.3 106.8 247.3C142.3 259.3 177.7 279.7 213.2 283C248.7 286.3 284.3 272.7 320 275.3C355.7 278 391.3 297 426.8 298.7C462.3 300.3 497.7 284.7 533.2 268.7C568.7 252.7 604.3 236.3 640 236.7C675.7 237 711.3 254 746.8 254C782.3 254 817.7 237 853.2 227C888.7 217 924.3 214 942.2 212.5L960 211L960 0L942.2 0C924.3 0 888.7 0 853.2 0C817.7 0 782.3 0 746.8 0C711.3 0 675.7 0 640 0C604.3 0 568.7 0 533.2 0C497.7 0 462.3 0 426.8 0C391.3 0 355.7 0 320 0C284.3 0 248.7 0 213.2 0C177.7 0 142.3 0 106.8 0C71.3 0 35.7 0 17.8 0L0 0Z" fill="#de4467"></path><path d="M0 198L17.8 205.7C35.7 213.3 71.3 228.7 106.8 228.2C142.3 227.7 177.7 211.3 213.2 209.5C248.7 207.7 284.3 220.3 320 216.3C355.7 212.3 391.3 191.7 426.8 186.3C462.3 181 497.7 191 533.2 198.5C568.7 206 604.3 211 640 203.7C675.7 196.3 711.3 176.7 746.8 171.5C782.3 166.3 817.7 175.7 853.2 189.8C888.7 204 924.3 223 942.2 232.5L960 242L960 0L942.2 0C924.3 0 888.7 0 853.2 0C817.7 0 782.3 0 746.8 0C711.3 0 675.7 0 640 0C604.3 0 568.7 0 533.2 0C497.7 0 462.3 0 426.8 0C391.3 0 355.7 0 320 0C284.3 0 248.7 0 213.2 0C177.7 0 142.3 0 106.8 0C71.3 0 35.7 0 17.8 0L0 0Z" fill="#e85467"></path><path d="M0 121L17.8 131.3C35.7 141.7 71.3 162.3 106.8 159.3C142.3 156.3 177.7 129.7 213.2 126.7C248.7 123.7 284.3 144.3 320 154.7C355.7 165 391.3 165 426.8 159.3C462.3 153.7 497.7 142.3 533.2 132.7C568.7 123 604.3 115 640 121.2C675.7 127.3 711.3 147.7 746.8 154C782.3 160.3 817.7 152.7 853.2 142.7C888.7 132.7 924.3 120.3 942.2 114.2L960 108L960 0L942.2 0C924.3 0 888.7 0 853.2 0C817.7 0 782.3 0 746.8 0C711.3 0 675.7 0 640 0C604.3 0 568.7 0 533.2 0C497.7 0 462.3 0 426.8 0C391.3 0 355.7 0 320 0C284.3 0 248.7 0 213.2 0C177.7 0 142.3 0 106.8 0C71.3 0 35.7 0 17.8 0L0 0Z" fill="#f16367"></path><path d="M0 73L17.8 72C35.7 71 71.3 69 106.8 75.2C142.3 81.3 177.7 95.7 213.2 93C248.7 90.3 284.3 70.7 320 68.8C355.7 67 391.3 83 426.8 85.8C462.3 88.7 497.7 78.3 533.2 76.7C568.7 75 604.3 82 640 77.2C675.7 72.3 711.3 55.7 746.8 59C782.3 62.3 817.7 85.7 853.2 93.5C888.7 101.3 924.3 93.7 942.2 89.8L960 86L960 0L942.2 0C924.3 0 888.7 0 853.2 0C817.7 0 782.3 0 746.8 0C711.3 0 675.7 0 640 0C604.3 0 568.7 0 533.2 0C497.7 0 462.3 0 426.8 0C391.3 0 355.7 0 320 0C284.3 0 248.7 0 213.2 0C177.7 0 142.3 0 106.8 0C71.3 0 35.7 0 17.8 0L0 0Z" fill="#fa7268"></path></svg>