<svg id="visual" viewBox="0 0 960 540" width="960" height="540" xmlns="http://www.w3.org/2000/svg" xmlns:xlink="http://www.w3.org/1999/xlink" version="1.1"><rect x="0" y="0" width="960" height="540" fill="#202020"></rect><path d="M0 311L17.8 316.7C35.7 322.3 71.3 333.7 106.8 341.8C142.3 350 177.7 355 213.2 353.8C248.7 352.7 284.3 345.3 320 343.8C355.7 342.3 391.3 346.7 426.8 337.3C462.3 328 497.7 305 533.2 304.8C568.7 304.7 604.3 327.3 640 330C675.7 332.7 711.3 315.3 746.8 303.5C782.3 291.7 817.7 285.3 853.2 283.3C888.7 281.3 924.3 283.7 942.2 284.8L960 286L960 0L942.2 0C924.3 0 888.7 0 853.2 0C817.7 0 782.3 0 746.8 0C711.3 0 675.7 0 640 0C604.3 0 568.7 0 533.2 0C497.7 0 462.3 0 426.8 0C391.3 0 355.7 0 320 0C284.3 0 248.7 0 213.2 0C177.7 0 142.3 0 106.8 0C71.3 0 35.7 0 17.8 0L0 0Z" fill="#c62368"></path><path d="M0 227L17.8 228.2C35.7 229.3 71.3 231.7 106.8 243C142.3 254.3 177.7 274.7 213.2 279.3C248.7 284 284.3 273 320 264.2C355.7 255.3 391.3 248.7 426.8 249.7C462.3 250.7 497.7 259.3 533.2 270.5C568.7 281.7 604.3 295.3 640 300C675.7 304.7 711.3 300.3 746.8 285.7C782.3 271 817.7 246 853.2 241.7C888.7 237.3 924.3 253.7 942.2 261.8L960 270L960 0L942.2 0C924.3 0 888.7 0 853.2 0C817.7 0 782.3 0 746.8 0C711.3 0 675.7 0 640 0C604.3 0 568.7 0 533.2 0C497.7 0 462.3 0 426.8 0C391.3 0 355.7 0 320 0C284.3 0 248.7 0 213.2 0C177.7 0 142.3 0 106.8 0C71.3 0 35.7 0 17.8 0L0 0Z" fill="#d23467"></path><path d="M0 182L17.8 183.5C35.7 185 71.3 188 106.8 197.7C142.3 207.3 177.7 223.7 213.2 226.3C248.7 229 284.3 218 320 220C355.7 222 391.3 237 426.8 238.3C462.3 239.7 497.7 227.3 533.2 214.7C568.7 202 604.3 189 640 189.3C675.7 189.7 711.3 203.3 746.8 203.3C782.3 203.3 817.7 189.7 853.2 181.7C888.7 173.7 924.3 171.3 942.2 170.2L960 169L960 0L942.2 0C924.3 0 888.7 0 853.2 0C817.7 0 782.3 0 746.8 0C711.3 0 675.7 0 640 0C604.3 0 568.7 0 533.2 0C497.7 0 462.3 0 426.8 0C391.3 0 355.7 0 320 0C284.3 0 248.7 0 213.2 0C177.7 0 142.3 0 106.8 0C71.3 0 35.7 0 17.8 0L0 0Z" fill="#de4467"></path><path d="M0 159L17.8 165C35.7 171 71.3 183 106.8 182.5C142.3 182 177.7 169 213.2 167.5C248.7 166 284.3 176 320 172.8C355.7 169.7 391.3 153.3 426.8 149.2C462.3 145 497.7 153 533.2 158.8C568.7 164.7 604.3 168.3 640 162.3C675.7 156.3 711.3 140.7 746.8 136.7C782.3 132.7 817.7 140.3 853.2 151.7C888.7 163 924.3 178 942.2 185.5L960 193L960 0L942.2 0C924.3 0 888.7 0 853.2 0C817.7 0 782.3 0 746.8 0C711.3 0 675.7 0 640 0C604.3 0 568.7 0 533.2 0C497.7 0 462.3 0 426.8 0C391.3 0 355.7 0 320 0C284.3 0 248.7 0 213.2 0C177.7 0 142.3 0 106.8 0C71.3 0 35.7 0 17.8 0L0 0Z" fill="#e85467"></path><path d="M0 96L17.8 104.5C35.7 113 71.3 130 106.8 127.7C142.3 125.3 177.7 103.7 213.2 101.2C248.7 98.7 284.3 115.3 320 123.7C355.7 132 391.3 132 426.8 127.5C462.3 123 497.7 114 533.2 106.2C568.7 98.3 604.3 91.7 640 96.7C675.7 101.7 711.3 118.3 746.8 123.5C782.3 128.7 817.7 122.3 853.2 114.2C888.7 106 924.3 96 942.2 91L960 86L960 0L942.2 0C924.3 0 888.7 0 853.2 0C817.7 0 782.3 0 746.8 0C711.3 0 675.7 0 640 0C604.3 0 568.7 0 533.2 0C497.7 0 462.3 0 426.8 0C391.3 0 355.7 0 320 0C284.3 0 248.7 0 213.2 0C177.7 0 142.3 0 106.8 0C71.3 0 35.7 0 17.8 0L0 0Z" fill="#f16367"></path><path d="M0 58L17.8 57.2C35.7 56.3 71.3 54.7 106.8 59.7C142.3 64.7 177.7 76.3 213.2 74.2C248.7 72 284.3 56 320 54.5C355.7 53 391.3 66 426.8 68.3C462.3 70.7 497.7 62.3 533.2 61C568.7 59.7 604.3 65.3 640 61.5C675.7 57.7 711.3 44.3 746.8 47C782.3 49.7 817.7 68.3 853.2 74.5C888.7 80.7 924.3 74.3 942.2 71.2L960 68L960 0L942.2 0C924.3 0 888.7 0 853.2 0C817.7 0 782.3 0 746.8 0C711.3 0 675.7 0 640 0C604.3 0 568.7 0 533.2 0C497.7 0 462.3 0 426.8 0C391.3 0 355.7 0 320 0C284.3 0 248.7 0 213.2 0C177.7 0 142.3 0 106.8 0C71.3 0 35.7 0 17.8 0L0 0Z" fill="#fa7268"></path></svg>