<svg id="visual" viewBox="0 0 960 540" width="960" height="540" xmlns="http://www.w3.org/2000/svg" xmlns:xlink="http://www.w3.org/1999/xlink" version="1.1"><rect x="0" y="0" width="960" height="540" fill="#001220"></rect><path d="M0 323L22.8 324.2C45.7 325.3 91.3 327.7 137 329.5C182.7 331.3 228.3 332.7 274 341.8C319.7 351 365.3 368 411.2 374.5C457 381 503 377 548.8 378.7C594.7 380.3 640.3 387.7 686 380C731.7 372.3 777.3 349.7 823 336.7C868.7 323.7 914.3 320.3 937.2 318.7L960 317L960 541L937.2 541C914.3 541 868.7 541 823 541C777.3 541 731.7 541 686 541C640.3 541 594.7 541 548.8 541C503 541 457 541 411.2 541C365.3 541 319.7 541 274 541C228.3 541 182.7 541 137 541C91.3 541 45.7 541 22.8 541L0 541Z" fill="#fa7268"></path><path d="M0 364L22.8 373.5C45.7 383 91.3 402 137 405.7C182.7 409.3 228.3 397.7 274 387.2C319.7 376.7 365.3 367.3 411.2 369.5C457 371.7 503 385.3 548.8 386.7C594.7 388 640.3 377 686 378.5C731.7 380 777.3 394 823 401.8C868.7 409.7 914.3 411.3 937.2 412.2L960 413L960 541L937.2 541C914.3 541 868.7 541 823 541C777.3 541 731.7 541 686 541C640.3 541 594.7 541 548.8 541C503 541 457 541 411.2 541C365.3 541 319.7 541 274 541C228.3 541 182.7 541 137 541C91.3 541 45.7 541 22.8 541L0 541Z" fill="#ef5f67"></path><path d="M0 406L22.8 409.3C45.7 412.7 91.3 419.3 137 418.7C182.7 418 228.3 410 274 412.3C319.7 414.7 365.3 427.3 411.2 430.5C457 433.7 503 427.3 548.8 422.3C594.7 417.3 640.3 413.7 686 412.5C731.7 411.3 777.3 412.7 823 410.7C868.7 408.7 914.3 403.3 937.2 400.7L960 398L960 541L937.2 541C914.3 541 868.7 541 823 541C777.3 541 731.7 541 686 541C640.3 541 594.7 541 548.8 541C503 541 457 541 411.2 541C365.3 541 319.7 541 274 541C228.3 541 182.7 541 137 541C91.3 541 45.7 541 22.8 541L0 541Z" fill="#e34c67"></path><path d="M0 434L22.8 439.5C45.7 445 91.3 456 137 464.8C182.7 473.7 228.3 480.3 274 477.8C319.7 475.3 365.3 463.7 411.2 458.3C457 453 503 454 548.8 454.5C594.7 455 640.3 455 686 452.5C731.7 450 777.3 445 823 443C868.7 441 914.3 442 937.2 442.5L960 443L960 541L937.2 541C914.3 541 868.7 541 823 541C777.3 541 731.7 541 686 541C640.3 541 594.7 541 548.8 541C503 541 457 541 411.2 541C365.3 541 319.7 541 274 541C228.3 541 182.7 541 137 541C91.3 541 45.7 541 22.8 541L0 541Z" fill="#d53867"></path><path d="M0 510L22.8 506C45.7 502 91.3 494 137 488.8C182.7 483.7 228.3 481.3 274 483.5C319.7 485.7 365.3 492.3 411.2 495.5C457 498.7 503 498.3 548.8 497C594.7 495.7 640.3 493.3 686 490.3C731.7 487.3 777.3 483.7 823 483.5C868.7 483.3 914.3 486.7 937.2 488.3L960 490L960 541L937.2 541C914.3 541 868.7 541 823 541C777.3 541 731.7 541 686 541C640.3 541 594.7 541 548.8 541C503 541 457 541 411.2 541C365.3 541 319.7 541 274 541C228.3 541 182.7 541 137 541C91.3 541 45.7 541 22.8 541L0 541Z" fill="#c62368"></path></svg>