<svg id="visual" viewBox="0 0 960 540" width="960" height="540" xmlns="http://www.w3.org/2000/svg" xmlns:xlink="http://www.w3.org/1999/xlink" version="1.1"><path d="M0 114L11.5 110.5C23 107 46 100 68.8 109C91.7 118 114.3 143 137.2 151C160 159 183 150 205.8 138.3C228.7 126.7 251.3 112.3 274.2 106.2C297 100 320 102 342.8 104.7C365.7 107.3 388.3 110.7 411.2 117.8C434 125 457 136 480 130.7C503 125.3 526 103.7 548.8 98.2C571.7 92.7 594.3 103.3 617.2 107.8C640 112.3 663 110.7 685.8 108C708.7 105.3 731.3 101.7 754.2 94.5C777 87.3 800 76.7 822.8 83C845.7 89.3 868.3 112.7 891.2 120.7C914 128.7 937 121.3 948.5 117.7L960 114L960 0L948.5 0C937 0 914 0 891.2 0C868.3 0 845.7 0 822.8 0C800 0 777 0 754.2 0C731.3 0 708.7 0 685.8 0C663 0 640 0 617.2 0C594.3 0 571.7 0 548.8 0C526 0 503 0 480 0C457 0 434 0 411.2 0C388.3 0 365.7 0 342.8 0C320 0 297 0 274.2 0C251.3 0 228.7 0 205.8 0C183 0 160 0 137.2 0C114.3 0 91.7 0 68.8 0C46 0 23 0 11.5 0L0 0Z" fill="#6198ff"></path><path d="M0 152L11.5 146.7C23 141.3 46 130.7 68.8 137.8C91.7 145 114.3 170 137.2 179C160 188 183 181 205.8 170.3C228.7 159.7 251.3 145.3 274.2 137.2C297 129 320 127 342.8 131.5C365.7 136 388.3 147 411.2 155.2C434 163.3 457 168.7 480 158.7C503 148.7 526 123.3 548.8 116.2C571.7 109 594.3 120 617.2 128.2C640 136.3 663 141.7 685.8 139.8C708.7 138 731.3 129 754.2 121.8C777 114.7 800 109.3 822.8 118.3C845.7 127.3 868.3 150.7 891.2 158.7C914 166.7 937 159.3 948.5 155.7L960 152L960 112L948.5 115.7C937 119.3 914 126.7 891.2 118.7C868.3 110.7 845.7 87.3 822.8 81C800 74.7 777 85.3 754.2 92.5C731.3 99.7 708.7 103.3 685.8 106C663 108.7 640 110.3 617.2 105.8C594.3 101.3 571.7 90.7 548.8 96.2C526 101.7 503 123.3 480 128.7C457 134 434 123 411.2 115.8C388.3 108.7 365.7 105.3 342.8 102.7C320 100 297 98 274.2 104.2C251.3 110.3 228.7 124.7 205.8 136.3C183 148 160 157 137.2 149C114.3 141 91.7 116 68.8 107C46 98 23 105 11.5 108.5L0 112Z" fill="#4f8cff"></path><path d="M0 201L11.5 196.5C23 192 46 183 68.8 189.3C91.7 195.7 114.3 217.3 137.2 226.3C160 235.3 183 231.7 205.8 217.2C228.7 202.7 251.3 177.3 274.2 169.2C297 161 320 170 342.8 176.3C365.7 182.7 388.3 186.3 411.2 191.8C434 197.3 457 204.7 480 193.8C503 183 526 154 548.8 148.5C571.7 143 594.3 161 617.2 173.7C640 186.3 663 193.7 685.8 190.2C708.7 186.7 731.3 172.3 754.2 162.3C777 152.3 800 146.7 822.8 157.3C845.7 168 868.3 195 891.2 205.8C914 216.7 937 211.3 948.5 208.7L960 206L960 150L948.5 153.7C937 157.3 914 164.7 891.2 156.7C868.3 148.7 845.7 125.3 822.8 116.3C800 107.3 777 112.7 754.2 119.8C731.3 127 708.7 136 685.8 137.8C663 139.7 640 134.3 617.2 126.2C594.3 118 571.7 107 548.8 114.2C526 121.3 503 146.7 480 156.7C457 166.7 434 161.3 411.2 153.2C388.3 145 365.7 134 342.8 129.5C320 125 297 127 274.2 135.2C251.3 143.3 228.7 157.7 205.8 168.3C183 179 160 186 137.2 177C114.3 168 91.7 143 68.8 135.8C46 128.7 23 139.3 11.5 144.7L0 150Z" fill="#3c80ff"></path><path d="M0 341L11.5 340.2C23 339.3 46 337.7 68.8 332.3C91.7 327 114.3 318 137.2 314.3C160 310.7 183 312.3 205.8 306.8C228.7 301.3 251.3 288.7 274.2 288.7C297 288.7 320 301.3 342.8 305C365.7 308.7 388.3 303.3 411.2 302.5C434 301.7 457 305.3 480 300C503 294.7 526 280.3 548.8 274.8C571.7 269.3 594.3 272.7 617.2 281.7C640 290.7 663 305.3 685.8 306.3C708.7 307.3 731.3 294.7 754.2 286.5C777 278.3 800 274.7 822.8 280C845.7 285.3 868.3 299.7 891.2 309.5C914 319.3 937 324.7 948.5 327.3L960 330L960 204L948.5 206.7C937 209.3 914 214.7 891.2 203.8C868.3 193 845.7 166 822.8 155.3C800 144.7 777 150.3 754.2 160.3C731.3 170.3 708.7 184.7 685.8 188.2C663 191.7 640 184.3 617.2 171.7C594.3 159 571.7 141 548.8 146.5C526 152 503 181 480 191.8C457 202.7 434 195.3 411.2 189.8C388.3 184.3 365.7 180.7 342.8 174.3C320 168 297 159 274.2 167.2C251.3 175.3 228.7 200.7 205.8 215.2C183 229.7 160 233.3 137.2 224.3C114.3 215.3 91.7 193.7 68.8 187.3C46 181 23 190 11.5 194.5L0 199Z" fill="#2573ff"></path><path d="M0 395L11.5 393.2C23 391.3 46 387.7 68.8 381.3C91.7 375 114.3 366 137.2 367.8C160 369.7 183 382.3 205.8 380.7C228.7 379 251.3 363 274.2 364.8C297 366.7 320 386.3 342.8 389C365.7 391.7 388.3 377.3 411.2 372C434 366.7 457 370.3 480 365.8C503 361.3 526 348.7 548.8 345.8C571.7 343 594.3 350 617.2 356.3C640 362.7 663 368.3 685.8 373.8C708.7 379.3 731.3 384.7 754.2 382.8C777 381 800 372 822.8 373.8C845.7 375.7 868.3 388.3 891.2 390.2C914 392 937 383 948.5 378.5L960 374L960 328L948.5 325.3C937 322.7 914 317.3 891.2 307.5C868.3 297.7 845.7 283.3 822.8 278C800 272.7 777 276.3 754.2 284.5C731.3 292.7 708.7 305.3 685.8 304.3C663 303.3 640 288.7 617.2 279.7C594.3 270.7 571.7 267.3 548.8 272.8C526 278.3 503 292.7 480 298C457 303.3 434 299.7 411.2 300.5C388.3 301.3 365.7 306.7 342.8 303C320 299.3 297 286.7 274.2 286.7C251.3 286.7 228.7 299.3 205.8 304.8C183 310.3 160 308.7 137.2 312.3C114.3 316 91.7 325 68.8 330.3C46 335.7 23 337.3 11.5 338.2L0 339Z" fill="#0066ff"></path><path d="M0 417L11.5 415.2C23 413.3 46 409.7 68.8 405.2C91.7 400.7 114.3 395.3 137.2 396.2C160 397 183 404 205.8 401.3C228.7 398.7 251.3 386.3 274.2 390C297 393.7 320 413.3 342.8 416C365.7 418.7 388.3 404.3 411.2 398C434 391.7 457 393.3 480 390.7C503 388 526 381 548.8 381C571.7 381 594.3 388 617.2 391.5C640 395 663 395 685.8 397.7C708.7 400.3 731.3 405.7 754.2 404.8C777 404 800 397 822.8 398C845.7 399 868.3 408 891.2 411.5C914 415 937 413 948.5 412L960 411L960 372L948.5 376.5C937 381 914 390 891.2 388.2C868.3 386.3 845.7 373.7 822.8 371.8C800 370 777 379 754.2 380.8C731.3 382.7 708.7 377.3 685.8 371.8C663 366.3 640 360.7 617.2 354.3C594.3 348 571.7 341 548.8 343.8C526 346.7 503 359.3 480 363.8C457 368.3 434 364.7 411.2 370C388.3 375.3 365.7 389.7 342.8 387C320 384.3 297 364.7 274.2 362.8C251.3 361 228.7 377 205.8 378.7C183 380.3 160 367.7 137.2 365.8C114.3 364 91.7 373 68.8 379.3C46 385.7 23 389.3 11.5 391.2L0 393Z" fill="#005fee"></path><path d="M0 449L11.5 450.8C23 452.7 46 456.3 68.8 453.7C91.7 451 114.3 442 137.2 442C160 442 183 451 205.8 450.2C228.7 449.3 251.3 438.7 274.2 438.7C297 438.7 320 449.3 342.8 452.8C365.7 456.3 388.3 452.7 411.2 452.7C434 452.7 457 456.3 480 454.5C503 452.7 526 445.3 548.8 442.7C571.7 440 594.3 442 617.2 443C640 444 663 444 685.8 446.7C708.7 449.3 731.3 454.7 754.2 452.8C777 451 800 442 822.8 440.2C845.7 438.3 868.3 443.7 891.2 446.3C914 449 937 449 948.5 449L960 449L960 409L948.5 410C937 411 914 413 891.2 409.5C868.3 406 845.7 397 822.8 396C800 395 777 402 754.2 402.8C731.3 403.7 708.7 398.3 685.8 395.7C663 393 640 393 617.2 389.5C594.3 386 571.7 379 548.8 379C526 379 503 386 480 388.7C457 391.3 434 389.7 411.2 396C388.3 402.3 365.7 416.7 342.8 414C320 411.3 297 391.7 274.2 388C251.3 384.3 228.7 396.7 205.8 399.3C183 402 160 395 137.2 394.2C114.3 393.3 91.7 398.7 68.8 403.2C46 407.7 23 411.3 11.5 413.2L0 415Z" fill="#0059dd"></path><path d="M0 492L11.5 494.8C23 497.7 46 503.3 68.8 506.2C91.7 509 114.3 509 137.2 509C160 509 183 509 205.8 506.2C228.7 503.3 251.3 497.7 274.2 494.8C297 492 320 492 342.8 496.5C365.7 501 388.3 510 411.2 512.8C434 515.7 457 512.3 480 512.3C503 512.3 526 515.7 548.8 513.8C571.7 512 594.3 505 617.2 505C640 505 663 512 685.8 513.8C708.7 515.7 731.3 512.3 754.2 507.8C777 503.3 800 497.7 822.8 497.7C845.7 497.7 868.3 503.3 891.2 507C914 510.7 937 512.3 948.5 513.2L960 514L960 447L948.5 447C937 447 914 447 891.2 444.3C868.3 441.7 845.7 436.3 822.8 438.2C800 440 777 449 754.2 450.8C731.3 452.7 708.7 447.3 685.8 444.7C663 442 640 442 617.2 441C594.3 440 571.7 438 548.8 440.7C526 443.3 503 450.7 480 452.5C457 454.3 434 450.7 411.2 450.7C388.3 450.7 365.7 454.3 342.8 450.8C320 447.3 297 436.7 274.2 436.7C251.3 436.7 228.7 447.3 205.8 448.2C183 449 160 440 137.2 440C114.3 440 91.7 449 68.8 451.7C46 454.3 23 450.7 11.5 448.8L0 447Z" fill="#0052cc"></path><path d="M0 541L11.5 541C23 541 46 541 68.8 541C91.7 541 114.3 541 137.2 541C160 541 183 541 205.8 541C228.7 541 251.3 541 274.2 541C297 541 320 541 342.8 541C365.7 541 388.3 541 411.2 541C434 541 457 541 480 541C503 541 526 541 548.8 541C571.7 541 594.3 541 617.2 541C640 541 663 541 685.8 541C708.7 541 731.3 541 754.2 541C777 541 800 541 822.8 541C845.7 541 868.3 541 891.2 541C914 541 937 541 948.5 541L960 541L960 512L948.5 511.2C937 510.3 914 508.7 891.2 505C868.3 501.3 845.7 495.7 822.8 495.7C800 495.7 777 501.3 754.2 505.8C731.3 510.3 708.7 513.7 685.8 511.8C663 510 640 503 617.2 503C594.3 503 571.7 510 548.8 511.8C526 513.7 503 510.3 480 510.3C457 510.3 434 513.7 411.2 510.8C388.3 508 365.7 499 342.8 494.5C320 490 297 490 274.2 492.8C251.3 495.7 228.7 501.3 205.8 504.2C183 507 160 507 137.2 507C114.3 507 91.7 507 68.8 504.2C46 501.3 23 495.7 11.5 492.8L0 490Z" fill="#004cbb"></path></svg>